<?xml version="1.0" encoding="UTF-8" standalone="no"?>
<!-- Created with Inkscape (http://www.inkscape.org/) -->

<svg
   width="105.90954mm"
   height="96.545341mm"
   viewBox="0 0 105.90954 96.545341"
   version="1.1"
   id="svg5"
   sodipodi:docname="spine-programming-fontawesome.svg"
   inkscape:version="1.4.3 (0d15f75042, 2025-12-25)"
   xmlns:inkscape="http://www.inkscape.org/namespaces/inkscape"
   xmlns:sodipodi="http://sodipodi.sourceforge.net/DTD/sodipodi-0.dtd"
   xmlns="http://www.w3.org/2000/svg"
   xmlns:svg="http://www.w3.org/2000/svg">
  <sodipodi:namedview
     id="namedview1"
     pagecolor="#ffffff"
     bordercolor="#999999"
     borderopacity="1"
     inkscape:showpageshadow="0"
     inkscape:pageopacity="0"
     inkscape:pagecheckerboard="0"
     inkscape:deskcolor="#d1d1d1"
     inkscape:document-units="mm"
     showgrid="false"
     inkscape:zoom="1.3897306"
     inkscape:cx="-4.3173834"
     inkscape:cy="160.46275"
     inkscape:window-width="1920"
     inkscape:window-height="991"
     inkscape:window-x="0"
     inkscape:window-y="32"
     inkscape:window-maximized="1"
     inkscape:current-layer="svg5" />
  <defs
     id="defs2" />
  <path
     id="path3352"
     style="fill:#000000;stroke:none;stroke-width:0.264583px;stroke-linecap:butt;stroke-linejoin:miter;stroke-opacity:1"
     d="m 57.994774,50.225335 c 10.861237,1.10705 23.811683,0.457749 31.395993,-8.514401 5.69756,-7.289071 4.22935,-18.747882 -3.00233,-24.488437 -2.903688,-3.5203 -11.483651,-7.2276926 -12.579675,-7.9746529 9.726789,1.8440199 20.701305,7.4316129 22.729435,18.0506119 2.04685,10.557586 -4.73355,22.768547 -15.856746,24.408094 -7.519448,1.660447 -15.361464,0.583607 -22.686677,-1.481215 z M 69.625797,6.0699515 A 1.1554313,1.1554313 0 0 1 68.470366,7.2253828 1.1554313,1.1554313 0 0 1 67.314935,6.0699515 1.1554313,1.1554313 0 0 1 68.470366,4.9145203 1.1554313,1.1554313 0 0 1 69.625797,6.0699515 Z M 64.744312,7.7259192 A 1.1554313,1.1554313 0 0 1 63.588881,8.8813505 1.1554313,1.1554313 0 0 1 62.43345,7.7259192 1.1554313,1.1554313 0 0 1 63.588881,6.570488 1.1554313,1.1554313 0 0 1 64.744312,7.7259192 Z M 55.673939,51.045856 a 1.1554313,1.1554313 0 0 1 -1.155431,1.155432 1.1554313,1.1554313 0 0 1 -1.155432,-1.155432 1.1554313,1.1554313 0 0 1 1.155432,-1.155431 1.1554313,1.1554313 0 0 1 1.155431,1.155431 z m -41.0425,42.243062 a 1.1554313,1.1554313 0 0 1 -1.155431,1.155431 1.1554313,1.1554313 0 0 1 -1.155431,-1.155431 1.1554313,1.1554313 0 0 1 1.155431,-1.155432 1.1554313,1.1554313 0 0 1 1.155431,1.155432 z M 60.525543,54.316936 a 1.3013321,1.3013321 0 0 1 -1.301332,1.301333 1.3013321,1.3013321 0 0 1 -1.301332,-1.301333 1.3013321,1.3013321 0 0 1 1.301332,-1.301332 1.3013321,1.3013321 0 0 1 1.301332,1.301332 z M 19.75483,91.169014 a 1.3013321,1.3013321 0 0 1 -1.301332,1.301332 1.3013321,1.3013321 0 0 1 -1.301333,-1.301332 1.3013321,1.3013321 0 0 1 1.301333,-1.301332 1.3013321,1.3013321 0 0 1 1.301332,1.301332 z M 75.311196,5.7408576 A 1.3013321,1.3013321 0 0 1 74.009863,7.0421897 1.3013321,1.3013321 0 0 1 72.708531,5.7408576 1.3013321,1.3013321 0 0 1 74.009863,4.4395255 1.3013321,1.3013321 0 0 1 75.311196,5.7408576 Z M 61.318474,11.566969 a 1.3013321,1.3013321 0 0 1 -1.301332,1.301332 1.3013321,1.3013321 0 0 1 -1.301332,-1.301332 1.3013321,1.3013321 0 0 1 1.301332,-1.301332 1.3013321,1.3013321 0 0 1 1.301332,1.301332 z M 81.098179,7.0212684 a 1.5187505,1.5187505 0 0 1 -1.518751,1.5187505 1.5187505,1.5187505 0 0 1 -1.51875,-1.5187505 1.5187505,1.5187505 0 0 1 1.51875,-1.5187506 1.5187505,1.5187505 0 0 1 1.518751,1.5187506 z M 58.152782,16.066694 a 1.5187505,1.5187505 0 0 1 -1.51875,1.518751 1.5187505,1.5187505 0 0 1 -1.518751,-1.518751 1.5187505,1.5187505 0 0 1 1.518751,-1.51875 1.5187505,1.5187505 0 0 1 1.51875,1.51875 z M 88.340897,8.9350567 a 1.8852172,1.8852172 0 0 1 -1.88522,1.8852173 1.8852172,1.8852172 0 0 1 -1.885215,-1.8852173 1.8852172,1.8852172 0 0 1 1.885215,-1.8852172 1.8852172,1.8852172 0 0 1 1.88522,1.8852172 z M 55.204392,22.490095 a 1.8852172,1.8852172 0 0 1 -1.885218,1.885217 1.8852172,1.8852172 0 0 1 -1.885217,-1.885217 1.8852172,1.8852172 0 0 1 1.885217,-1.885217 1.8852172,1.8852172 0 0 1 1.885218,1.885217 z m 17.714286,34.642347 a 1.8852172,1.8852172 0 0 1 -1.885217,1.885218 1.8852172,1.8852172 0 0 1 -1.885217,-1.885218 1.8852172,1.8852172 0 0 1 1.885217,-1.885217 1.8852172,1.8852172 0 0 1 1.885217,1.885217 z M 30.193207,84.206078 a 1.8852172,1.8852172 0 0 1 -1.885217,1.885217 1.8852172,1.8852172 0 0 1 -1.885217,-1.885217 1.8852172,1.8852172 0 0 1 1.885217,-1.885218 1.8852172,1.8852172 0 0 1 1.885217,1.885218 z M 66.721544,56.094616 a 1.7643923,1.7643923 0 0 1 -1.764392,1.764392 1.7643923,1.7643923 0 0 1 -1.764392,-1.764392 1.7643923,1.7643923 0 0 1 1.764392,-1.764392 1.7643923,1.7643923 0 0 1 1.764392,1.764392 z M 25.136003,88.043617 a 1.7643923,1.7643923 0 0 1 -1.764392,1.764393 1.7643923,1.7643923 0 0 1 -1.764392,-1.764393 1.7643923,1.7643923 0 0 1 1.764392,-1.764392 1.7643923,1.7643923 0 0 1 1.764392,1.764392 z M 80.481601,57.563801 a 2.2578931,2.2578931 0 0 1 -2.257893,2.257893 2.2578931,2.2578931 0 0 1 -2.257893,-2.257893 2.2578931,2.2578931 0 0 1 2.257893,-2.257893 2.2578931,2.2578931 0 0 1 2.257893,2.257893 z M 35.870196,79.726158 a 2.2578931,2.2578931 0 0 1 -2.257893,2.257893 2.2578931,2.2578931 0 0 1 -2.257893,-2.257893 2.2578931,2.2578931 0 0 1 2.257893,-2.257893 2.2578931,2.2578931 0 0 1 2.257893,2.257893 z M 95.734477,13.173277 a 2.2578931,2.2578931 0 0 1 -2.25789,2.257893 2.2578931,2.2578931 0 0 1 -2.2579,-2.257893 2.2578931,2.2578931 0 0 1 2.2579,-2.257893 2.2578931,2.2578931 0 0 1 2.25789,2.257893 z m -42.5643,16.13417 a 2.2578931,2.2578931 0 0 1 -2.257893,2.257894 2.2578931,2.2578931 0 0 1 -2.257894,-2.257894 2.2578931,2.2578931 0 0 1 2.257894,-2.257893 2.2578931,2.2578931 0 0 1 2.257893,2.257893 z m 49.653403,-9.567741 a 2.8189964,2.8189964 0 0 1 -2.81899,2.818996 2.8189964,2.8189964 0 0 1 -2.819003,-2.818996 2.8189964,2.8189964 0 0 1 2.819003,-2.818996 2.8189964,2.8189964 0 0 1 2.81899,2.818996 z M 51.766192,37.18285 a 2.8189964,2.8189964 0 0 1 -2.818996,2.818996 2.8189964,2.8189964 0 0 1 -2.818997,-2.818996 2.8189964,2.8189964 0 0 1 2.818997,-2.818997 2.8189964,2.8189964 0 0 1 2.818996,2.818997 z m 38.229725,19.086723 a 2.8189964,2.8189964 0 0 1 -2.81899,2.818997 2.8189964,2.8189964 0 0 1 -2.818999,-2.818997 2.8189964,2.8189964 0 0 1 2.818999,-2.818996 2.8189964,2.8189964 0 0 1 2.81899,2.818996 z M 41.022013,73.519867 a 2.8189964,2.8189964 0 0 1 -2.818996,2.818996 2.8189964,2.8189964 0 0 1 -2.818997,-2.818996 2.8189964,2.8189964 0 0 1 2.818997,-2.818996 2.8189964,2.8189964 0 0 1 2.818996,2.818996 z M 98.283057,49.64053 a 3.2853103,3.2853103 0 0 1 -3.28531,3.28531 3.2853103,3.2853103 0 0 1 -3.28531,-3.28531 3.2853103,3.2853103 0 0 1 3.28531,-3.285311 3.2853103,3.2853103 0 0 1 3.28531,3.285311 z M 46.195541,65.908096 a 3.2853103,3.2853103 0 0 1 -3.28531,3.285311 3.2853103,3.2853103 0 0 1 -3.28531,-3.285311 3.2853103,3.2853103 0 0 1 3.28531,-3.28531 3.2853103,3.2853103 0 0 1 3.28531,3.28531 z m 59.713999,-37.02878 a 3.2853103,3.2853103 0 0 1 -3.28531,3.285311 3.2853103,3.2853103 0 0 1 -3.285313,-3.285311 3.2853103,3.2853103 0 0 1 3.285313,-3.28531 3.2853103,3.2853103 0 0 1 3.28531,3.28531 z M 51.029633,46.732128 a 3.2853103,3.2853103 0 0 1 -3.285311,3.28531 3.2853103,3.2853103 0 0 1 -3.28531,-3.28531 3.2853103,3.2853103 0 0 1 3.28531,-3.28531 3.2853103,3.2853103 0 0 1 3.285311,3.28531 z m 54.314527,-6.829941 a 3.8315203,3.8315203 0 0 1 -3.83152,3.831521 3.8315203,3.8315203 0 0 1 -3.831523,-3.831521 3.8315203,3.8315203 0 0 1 3.831523,-3.83152 3.8315203,3.8315203 0 0 1 3.83152,3.83152 z M 49.613326,56.759144 a 3.8315203,3.8315203 0 0 1 -3.83152,3.83152 3.8315203,3.8315203 0 0 1 -3.831521,-3.83152 3.8315203,3.8315203 0 0 1 3.831521,-3.83152 3.8315203,3.8315203 0 0 1 3.83152,3.83152 z M 67.975024,0 C 51.444874,9.2173426 36.212746,23.667043 31.789825,42.677963 30.317033,50.916285 30.112079,59.54907 26.198702,67.151981 20.749026,79.336691 11.282071,89.516553 0,96.545345 18.954852,88.94817 35.935798,72.928488 39.741741,52.24803 41.246698,40.130208 43.508551,27.722492 50.367525,17.345006 54.766538,10.298447 60.689114,4.0820189 67.975024,0 Z" />
</svg>
